{"title":"Resident Evil: Retribution (2012) BRRIP 1080P NO CINAVIA","uid":10281031,"size":2960239769,"categoryP":"video","categoryS":"hd___movies","magnet":"?xt=urn:btih:548c666b665c228f7a411be31f1d8dc273fb4f1e&amp;dn=+Resident+Evil%3A+Retribution+%282012%29+BRRIP+1080P+NO+CINAVIA&amp;tr=udp%3A%2F%2Ftracker.openbittorrent.com%3A80&amp;tr=udp%3A%2F%2Fopen.demonii.com%3A1337&amp;tr=udp%3A%2F%2Ftracker.coppersurfer.tk%3A6969&amp;tr=udp%3A%2F%2Fexodus.desync.com%3A6969","seeders":2,"leechers":0,"uploader":"jmanwf","files":4,"time":1401697822,"description":"Storyline\n\nAlice awakes at home with her daughter Becky and her husband. But soon she realizes that she is actually in an Umbrella Corporation's underground facility. Out of the blue, the computer security system shuts-down and Alice flees to the central control room of the facility. She meets Ada Wong, who works with Albert Wesker, and she learns that a five-man team has been sent by Wesker to rescue them. However, the Red Queen sends Jill Valentine and Rain to hunt them down.\n\n\n\n\nFormat                                   : MPEG-4\nFormat profile                           : Base Media\nCodec ID                                 : isom\nFile size                                : 2.75 GiB\nDuration                                 : 1h 35mn\nOverall bit rate mode                    : Variable\nOverall bit rate                         : 4 117 Kbps\nTagged date                              : UTC 2014-05-26 07:47:16\nWriting application                      : Lavf54.59.106 mp4creator 1.6.1d m\nVideo\nID                                       : 1\nFormat                                   : AVC\nFormat/Info                              : Advanced Video Codec\nFormat profile                           : &lt;a class=&quot;__cf_email__&quot; href=&quot;/cdn-cgi/l/email-protection&quot; data-cfemail=&quot;561e3f313e161a627866&quot;&gt;[email&amp;#160;protected]&lt;/a&gt;&lt;script cf-hash='f9e31' type=&quot;text/javascript&quot;&gt;\n/* &lt;![CDATA[ */!function(){try{var t=&quot;currentScript&quot;in document?document.currentScript:function(){for(var t=document.getElementsByTagName(&quot;script&quot;),e=t.length;e--;)if(t[e].getAttribute(&quot;cf-hash&quot;))return t[e]}();if(t&amp;&amp;t.previousSibling){var e,r,n,i,c=t.previousSibling,a=c.getAttribute(&quot;data-cfemail&quot;);if(a){for(e=&quot;&quot;,r=parseInt(a.substr(0,2),16),n=2;a.length-n;n+=2)i=parseInt(a.substr(n,2),16)^r,e+=String.fromCharCode(i);e=document.createTextNode(e),c.parentNode.replaceChild(e,c)}}}catch(u){}}();/* ]]&gt; */&lt;/script&gt;\nFormat settings, CABAC                   : Yes\nFormat settings, ReFrames                : 4 frames\nCodec ID                                 : avc1\nCodec ID/Info                            : Advanced Video Coding\nDuration                                 : 1h 35mn\nBit rate                                 : 3 731 Kbps\nWidth                                    : 1 920 pixels\nHeight                                   : 1 080 pixels\nDisplay aspect ratio                     : 16:9\nFrame rate mode                          : Constant\nFrame rate                               : 23.976 fps\nColor space                              : YUV\nChroma subsampling                       : 4:2:0\nBit depth                                : 8 bits\nScan type                                : Progressive\nBits/(Pixel*Frame)                       : 0.075\nStream size                              : 2.38 GiB (87%)\n\nAudio #1\nID                                       : 2\nFormat                                   : AAC\nFormat/Info                              : Advanced Audio Codec\nFormat profile                           : LC\nCodec ID                                 : 40\nDuration                                 : 1h 35mn\nBit rate mode                            : Variable\nBit rate                                 : 160 Kbps\nMaximum bit rate                         : 252 Kbps\nChannel(s)                               : 2 channels\nChannel positions                        : Front: L R\nSampling rate                            : 48.0 KHz\nCompression mode                         : Lossy\nStream size                              : 109 MiB (4%)\n\nAudio #2\nID                                       : 5\nFormat                                   : AC-3\nFormat/Info                              : Audio Coding 3\nCodec ID                                 : ac-3\nDuration                                 : 1h 35mn\nBit rate mode                            : Constant\nBit rate                                 : 192 Kbps\nChannel(s)                               :  channel0\nSampling rate                            : 0 Hz\nCompression mode                         : Lossy\nStream size                              : 131 MiB (5%)\nLanguage                                 : English\nEncoded date                             : UTC 2014-05-26 07:40:18\nTagged date                              : UTC 2014-05-26 07:40:19\n\nAudio #3\nID                                       : 6\nFormat                                   : AC-3\nFormat/Info                              : Audio Coding 3\nFormat profile                           : Dolby Digital\nMode extension                           : CM (complete main)\nFormat settings, Endianness              : Big\nCodec ID                                 : ac-3\nDuration                                 : 1h 35mn\nBit rate mode                            : Constant\nBit rate                                 : 192 Kbps\nChannel(s)                               : 2 channels\nChannel positions                        : Front: L R\nSampling rate                            : 48.0 KHz\nBit depth                                : 16 bits\nCompression mode                         : Lossy\nStream size                              : 131 MiB (5%)\nLanguage                                 : English\nEncoded date                             : UTC 2014-05-26 07:47:15\nTagged date                              : UTC 2014-05-26 07:47:16\n\n\n\n\nINCLUDES DIRECTORIES COMMENTARY\n\n\n &lt;a href=&quot;\nhttp://www.imdb.com/title/tt1855325/&quot; rel=&quot;nofollow&quot; target=&quot;_NEW&quot;&gt;\nhttp://www.imdb.com/title/tt1855325/&lt;/a&gt;","torrent":{"xt":"urn:btih:548c666b665c228f7a411be31f1d8dc273fb4f1e","amp;dn":"+Resident+Evil%3A+Retribution+%282012%29+BRRIP+1080P+NO+CINAVIA","amp;tr":["udp%3A%2F%2Ftracker.openbittorrent.com%3A80","udp%3A%2F%2Fopen.demonii.com%3A1337","udp%3A%2F%2Ftracker.coppersurfer.tk%3A6969","udp%3A%2F%2Fexodus.desync.com%3A6969"],"infoHash":"548c666b665c228f7a411be31f1d8dc273fb4f1e","infoHashBuffer":{"type":"Buffer","data":[84,140,102,107,102,92,34,143,122,65,27,227,31,29,141,194,115,251,79,30]},"announce":[],"urlList":[]}}